PathFileType	4	(X/Y/Z)	D:\TRACE\spotREDO_2-26-24\spot_justBody_Motion_2_8-platform.trc
DataRate	CameraRate	NumFrames	NumMarkers	Units	OrigDataRate	OrigDataStartFrame	OrigNumFrames
100.00	100.00	      66	5	mm	100.00	5251	      7000
Frame#	Time	Left_Front			Right_Front			Left_Aft			Right_Aft			Post			
		X1	Y1	Z1	X2	Y2	Z2	X3	Y3	Z3	X4	Y4	Z4	X5	Y5	Z5	

5251	52.500	-717.12268	6.98179	-572.88068	697.91412	14.11665	-488.14908	-788.37292	-7.07636	646.04730	781.89099	0.05908	649.57404	-8.15853	641.67181	-967.97345	
5252	52.510	-718.16571	5.41412	-573.24017	696.43951	13.33047	-488.70773	-789.33734	-5.95466	645.65533	780.83734	1.30099	649.29987	-8.91290	639.48309	-969.44940	
5253	52.520	-719.23682	4.39748	-573.48755	695.65082	11.85891	-488.81433	-790.57764	-4.64056	645.31030	779.73602	2.74304	648.94690	-9.62469	637.20734	-971.45502	
5254	52.530	-720.22375	3.08221	-573.87927	694.75922	10.93430	-489.18311	-791.44171	-2.95141	644.90723	778.59869	4.08240	648.47046	-11.05889	635.23529	-973.22284	
5255	52.540	-721.34430	1.69898	-574.23065	693.57184	9.66658	-489.53488	-792.48157	-1.94282	644.47571	777.45270	5.38014	648.19592	-11.84008	632.95007	-974.96844	
5256	52.550	-722.55322	0.74138	-574.62109	692.36603	8.82522	-490.01556	-793.52789	-0.62654	644.37109	776.42175	6.33144	647.73560	-12.96567	630.87543	-976.54034	
5257	52.560	-723.54602	-0.69945	-575.02112	691.54932	7.71740	-490.38181	-794.88715	0.98115	643.80090	775.13025	8.00807	647.71332	-14.04277	628.61835	-978.34015	
5258	52.570	-724.39917	-1.88241	-575.37646	690.21759	6.24500	-490.46719	-795.91736	1.85993	643.65631	774.26471	9.37679	647.34076	-15.03852	626.67291	-980.05261	
5259	52.580	-725.45642	-3.26691	-575.56104	689.29797	5.63228	-491.09634	-797.17621	3.66347	643.23871	773.24762	10.81744	647.04486	-16.12091	624.36273	-981.61493	
5260	52.590	-726.53149	-4.46585	-575.93347	688.35138	4.15509	-491.20343	-797.97467	4.57706	643.07678	772.21582	12.02542	646.56641	-16.84874	622.41284	-983.34503	
5261	52.600	-727.85669	-5.58858	-576.37012	687.32324	3.34864	-491.74756	-799.03265	5.97110	642.59222	771.69781	12.64623	645.95148	-17.98599	620.30072	-984.44415	
5262	52.610	-728.51257	-7.15333	-576.50690	686.40387	1.90395	-491.79984	-799.93384	7.41492	642.09906	770.61346	14.66872	645.99603	-18.89681	618.08313	-986.19006	
5263	52.620	-729.46710	-8.28569	-576.87689	685.45007	1.09003	-492.16998	-800.81177	8.60893	641.83362	769.62671	15.88079	645.55505	-19.99195	615.87720	-987.83618	
5264	52.630	-730.32123	-9.53281	-577.13477	684.35126	-0.04928	-492.72577	-801.83124	9.75637	641.49158	768.16534	16.83693	645.12793	-21.00078	613.76160	-989.50854	
5265	52.640	-731.30640	-10.58822	-577.41370	683.45831	-1.36047	-492.80399	-802.99274	11.68946	641.02881	767.59723	18.37454	644.84973	-21.65034	611.64819	-991.12451	
5266	52.650	-732.39014	-11.86827	-577.77197	682.71930	-2.25479	-493.17593	-803.64978	12.36937	640.88708	766.66608	19.75343	644.38843	-22.66695	609.62897	-992.68256	
5267	52.660	-733.19727	-13.28082	-578.20844	681.67773	-3.35470	-493.31378	-804.53583	14.05258	640.45453	765.50659	20.92198	644.24890	-23.38293	607.52881	-994.48743	
5268	52.670	-734.16669	-14.35470	-578.44324	680.59729	-4.14183	-494.03339	-805.34808	14.86079	640.18835	764.76630	22.17967	643.88794	-24.60739	605.43689	-996.02563	
5269	52.680	-735.07892	-15.65666	-578.58374	680.05377	-5.48069	-494.06793	-806.41864	16.18209	639.77252	764.06976	23.63938	643.51147	-25.22775	603.33325	-997.97443	
5270	52.690	-735.87225	-16.87106	-578.92505	679.03741	-6.57714	-494.25931	-807.37134	17.42450	639.35114	763.18121	24.61403	643.06519	-25.96563	601.25403	-998.79840	
5271	52.700	-736.55804	-18.12958	-579.07733	678.04956	-7.54238	-494.90375	-808.18225	18.69581	639.08484	762.33661	25.67654	642.53540	-26.81589	599.15381	-1000.92163	
5272	52.710	-737.31958	-19.50064	-579.63354	677.51306	-8.72454	-495.03165	-808.88922	20.07763	638.60400	761.31036	27.35056	642.50140	-27.34628	596.98773	-1002.16779	
5273	52.720	-738.19348	-20.49122	-579.90161	676.79022	-9.74981	-494.93625	-809.59979	21.24763	638.32953	760.50720	28.42665	642.04089	-28.35415	595.09094	-1003.72137	
5274	52.730	-738.97333	-21.67996	-580.11951	676.10931	-10.81231	-495.39288	-810.53448	22.57416	638.07404	759.68933	29.60533	641.65912	-29.17266	592.95142	-1005.20630	
5275	52.740	-739.79486	-22.98280	-580.39075	675.10120	-11.58105	-495.89233	-811.18030	23.45390	637.73969	759.10632	30.49077	640.87543	-30.04537	590.91052	-1006.54242	
5276	52.750	-740.40472	-23.96814	-580.50751	674.40228	-12.90836	-496.09070	-811.96777	24.73602	637.32745	758.34375	32.11000	641.12531	-30.80251	588.80121	-1008.10565	
5277	52.760	-741.07916	-25.39616	-580.82214	673.94171	-13.81161	-496.21335	-812.81085	25.93945	636.92383	757.60724	33.11799	640.71014	-31.30148	586.86938	-1009.29926	
5278	52.770	-741.74121	-26.36508	-581.08978	673.32800	-14.67701	-496.61737	-813.37292	27.09861	636.53284	757.13318	33.96627	640.02325	-31.91735	584.86334	-1010.87476	
5279	52.780	-742.30237	-27.41579	-581.25891	672.45410	-15.57261	-496.94061	-813.93622	28.27909	636.27136	756.51355	35.72178	639.74371	-32.20018	582.94458	-1012.04553	
5280	52.790	-743.03033	-28.79659	-581.57465	671.85028	-16.72131	-497.07977	-814.56970	29.37306	635.73071	755.93610	36.51146	639.76526	-33.14340	580.98999	-1013.50183	
5281	52.800	-743.56610	-29.58720	-581.85657	671.62451	-17.70274	-497.22742	-815.03668	30.43977	635.54266	755.27307	37.60813	639.31042	-33.47968	579.08679	-1015.18671	
5282	52.810	-744.08960	-30.91765	-581.98346	671.17786	-18.64169	-497.34943	-815.55804	31.79276	635.34558	754.64105	39.00122	638.97601	-34.29909	577.26318	-1016.26514	
5283	52.820	-744.43762	-31.97185	-582.28619	670.37585	-19.56390	-497.89120	-816.15881	32.75111	634.91534	754.39014	40.03191	638.66553	-34.53337	575.37506	-1017.82141	
5284	52.830	-744.87854	-33.02736	-582.57336	669.95123	-20.51771	-497.92474	-816.68860	33.86832	634.54272	753.65283	40.72623	637.96167	-34.88830	573.48773	-1018.97632	
5285	52.840	-745.23169	-34.18156	-582.66199	669.52441	-21.57921	-498.29041	-816.99182	34.97097	634.03107	753.37195	42.33012	637.94867	-35.43768	571.64502	-1020.33826	
5286	52.850	-745.67975	-35.17070	-582.91705	669.06494	-22.46567	-498.46866	-817.25751	35.90689	633.88263	753.14465	43.03057	637.50775	-36.04954	569.88495	-1021.77881	
5287	52.860	-746.09515	-36.16714	-583.14307	668.77570	-23.38316	-498.69958	-817.81189	37.25801	633.40918	752.69525	44.20247	637.31696	-35.81737	567.98486	-1022.50793	
5288	52.870	-746.19525	-37.34954	-583.35968	668.52087	-24.25120	-498.84561	-818.03961	37.99121	633.06360	752.31677	45.10339	636.97491	-36.18910	566.14160	-1023.87646	
5289	52.880	-746.40381	-38.21354	-583.41260	668.17395	-24.96095	-499.06308	-818.43176	39.52805	632.56976	752.23523	46.22544	636.44012	-36.75217	564.54651	-1025.15381	
5290	52.890	-746.41522	-39.33582	-583.49683	667.95526	-26.08525	-499.28073	-818.42896	40.09761	632.52625	752.07440	47.06987	635.96796	-37.14202	562.83728	-1026.56372	
5291	52.900	-746.93549	-40.25307	-583.93512	667.95825	-26.89308	-499.49908	-818.51709	40.76593	632.33618	751.64185	48.23346	636.07770	-36.99100	561.12433	-1027.36804	
5292	52.910	-747.04169	-41.10242	-584.17462	667.81573	-27.42145	-499.74789	-818.75745	41.94773	631.75336	751.78485	49.34904	635.62964	-37.28920	559.44073	-1028.65649	
5293	52.920	-746.95251	-42.22065	-584.30042	667.86713	-28.47410	-499.67334	-818.68420	42.88362	631.62177	751.57904	49.72689	635.07379	-36.99011	557.79834	-1029.91968	
5294	52.930	-747.19904	-42.99788	-584.43262	667.79492	-29.49510	-500.07266	-818.70496	43.68866	631.37494	751.44269	50.69863	634.65698	-37.28505	556.20282	-1030.90869	
5295	52.940	-747.15198	-43.84414	-584.71167	667.91406	-30.08585	-500.13153	-818.73346	44.81305	631.05280	751.74188	52.08135	634.66046	-37.04021	554.67242	-1032.04309	
5296	52.950	-746.87134	-44.77000	-584.79773	667.84491	-30.55845	-500.49884	-818.76282	45.52121	630.61328	751.70807	52.77037	634.46112	-37.04830	553.05890	-1032.96875	
5297	52.960	-746.90326	-45.64700	-584.84003	667.86505	-31.48151	-500.64572	-818.66620	46.47808	630.33173	751.44940	53.68021	634.13043	-37.17553	551.63354	-1034.12024	
5298	52.970	-747.25452	-46.32847	-584.95575	667.80725	-32.34228	-500.73062	-818.65387	47.22328	630.05737	751.67236	54.58160	633.93829	-37.02591	550.20850	-1035.10864	
5299	52.980	-747.01733	-47.28437	-585.18048	667.97290	-32.99435	-501.01767	-818.66675	48.03106	629.80481	751.75061	55.38996	633.61829	-37.14823	548.66577	-1036.23279	
5300	52.990	-746.75159	-48.06142	-585.37421	668.27087	-33.65757	-501.04358	-818.52887	49.14111	629.54462	751.83850	56.13231	633.36896	-36.46627	547.45703	-1036.81836	
5301	53.000	-746.51740	-48.69825	-585.48346	668.51581	-34.17645	-501.24353	-818.05212	49.83080	629.41663	752.38824	57.01694	632.96710	-36.04879	545.87030	-1037.40173	
5302	53.010	-745.99341	-49.68436	-585.68201	668.86853	-34.95522	-501.36981	-817.82404	50.50831	629.05511	752.74841	57.69729	632.79883	-35.59382	544.65271	-1038.27197	
5303	53.020	-745.65173	-50.45486	-585.71484	669.07843	-35.54415	-501.56778	-817.50629	51.32484	628.90369	752.65973	58.45790	632.48822	-35.54430	543.30157	-1039.59741	
5304	53.030	-745.05353	-50.94442	-585.56586	669.59436	-36.39116	-501.73373	-817.33960	51.98794	628.41193	753.26794	59.64811	632.35565	-35.09428	541.95850	-1039.91406	
5305	53.040	-745.02521	-51.90067	-585.99567	670.17615	-36.98096	-501.68338	-816.92676	52.43038	628.15491	753.61206	59.76331	632.16821	-35.03938	540.59161	-1041.06140	
5306	53.050	-744.52954	-52.54790	-585.96832	670.47009	-37.53885	-501.88602	-816.35052	53.07166	628.08875	753.82922	60.58952	631.87360	-34.67169	539.77155	-1041.97095	
5307	53.060	-744.20703	-53.08367	-586.07465	670.83307	-37.98419	-501.88419	-816.07397	53.52501	627.83636	754.42316	61.07187	631.58185	-34.28462	538.36523	-1042.95154	
5308	53.070	-743.93280	-53.57468	-586.32520	671.08551	-38.35471	-502.09268	-815.66815	54.54920	627.53906	754.94037	61.55984	631.34161	-33.65598	537.35272	-1043.77734	
5309	53.080	-743.37726	-54.37922	-586.50452	671.55609	-39.07934	-502.17169	-815.18719	55.25029	627.40430	755.25092	62.05955	630.89874	-33.41166	536.48358	-1044.25159	
5310	53.090	-743.03955	-54.81018	-586.50970	671.97125	-39.48228	-502.31818	-814.59735	55.57792	627.27277	755.38037	63.01915	631.12219	-32.98835	535.50714	-1045.39478	
5311	53.100	-742.65375	-55.11467	-586.51422	672.54865	-39.74487	-502.54327	-814.34540	55.97784	627.07068	756.08368	63.45577	630.85034	-32.41572	534.56830	-1045.71533	
5312	53.110	-742.08984	-55.73571	-586.64392	673.00299	-40.31087	-502.49976	-813.79675	56.26689	626.93304	756.75885	63.85909	630.75946	-31.91629	533.82263	-1046.18152	
5313	53.120	-741.48444	-56.30785	-586.80719	673.47119	-40.78621	-502.46933	-813.28656	56.68643	626.71484	757.02344	64.14471	630.62976	-31.44481	533.16840	-1046.50977	
5314	53.130	-741.06744	-56.67672	-586.81665	674.01160	-41.06661	-502.60083	-812.91455	57.55983	626.44153	757.44366	64.43801	630.12476	-30.86030	532.29700	-1046.93347	
5315	53.140	-740.62329	-56.80672	-586.81702	674.51447	-41.27265	-502.73514	-812.21515	57.51038	626.52704	757.98035	65.18810	630.28473	-30.37164	531.91797	-1047.10303	
5316	53.150	-739.94385	-57.14282	-586.90027	675.09015	-41.55685	-502.61655	-811.65503	57.93990	626.37891	758.59473	65.59818	630.25000	-29.89190	531.28766	-1047.13928	
